PathFileType	4	(X/Y/Z)	C:/Users/opensim2020/Desktop/walking_exp_matlab/subject06_walking11_run_cyclic.trc																																																																																																																																								
DataRate	CameraRate	NumFrames	NumMarkers	Units	OrigDataRate	OrigDataStartFrame	OrigNumFrames																																																																																																																																				
100	100	7	46	mm	100	262	66																																																																																																																																				
Frame#	Time	LKNE			RKNE			RFRM			RWRA			RWRB			RELB			RUPA			RSHO			LWRA			RFIN			RFHD			CLAV			RASI			RTHI			LSHO			LTHI			RBHD			C7			LTIB			LANK			LTOE			LBHD			RTIB			RBAK			LHEE			RANK			STRN			RHEE			RTOE			T10			LUPA			LFHD			LPSI			RPSI			LASI			LFRM			LWRB			LFIN			LELB			*39			*40			*41			*42			*43			*44			*45		
		X1	Y1	Z1	X2	Y2	Z2	X3	Y3	Z3	X4	Y4	Z4	X5	Y5	Z5	X6	Y6	Z6	X7	Y7	Z7	X8	Y8	Z8	X9	Y9	Z9	X10	Y10	Z10	X11	Y11	Z11	X12	Y12	Z12	X13	Y13	Z13	X14	Y14	Z14	X15	Y15	Z15	X16	Y16	Z16	X17	Y17	Z17	X18	Y18	Z18	X19	Y19	Z19	X20	Y20	Z20	X21	Y21	Z21	X22	Y22	Z22	X23	Y23	Z23	X24	Y24	Z24	X25	Y25	Z25	X26	Y26	Z26	X27	Y27	Z27	X28	Y28	Z28	X29	Y29	Z29	X30	Y30	Z30	X31	Y31	Z31	X32	Y32	Z32	X33	Y33	Z33	X34	Y34	Z34	X35	Y35	Z35	X36	Y36	Z36	X37	Y37	Z37	X38	Y38	Z38	X39	Y39	Z39	X40	Y40	Z40	X41	Y41	Z41	X42	Y42	Z42	X43	Y43	Z43	X44	Y44	Z44	X45	Y45	Z45	X46	Y46	Z46
																																																																																																																																											
48	0.47	987.81287	502.88757	78.56636	1244.25146	567.00507	328.77863	990.65765	1191.89612	462.1572	1118.59644	1197.93213	397.2023	1110.98804	1140.4303	430.01309	909.29303	1252.75	476.21939	961.94672	1342.48315	435.20645	1107.83215	1444.4104	347.6384	1260.19067	1264.24951	69.60118	1192.35181	1154.59644	414.29874	1200.10217	1677.5603	284.81924	1193.4491	1396.60339	212.84009	1162.37134	990.70294	313.01501	1184.95422	673.87823	369.18024	1166.79602	1444.9906	51.57957	1035.52002	662.41772	51.31511	1073.79285	1616.36707	271.01596	1090.10974	1476.54272	187.68739	751.16315	412.42847	88.57668	591.69678	350.01407	120.56837	582.37579	201.66052	144.77913	1082.40222	1623.58826	142.09859	1282.11804	310.50983	296.48663	994.92975	1324.922	235.1468	569.6377	386.77182	164.01834	1325.57507	137.3644	230.44226	1220.61536	1216.40564	211.97717	1292.3147	131.3503	182.76535	1480.18213	73.0623	205.49306	1023.33325	1161.51868	181.9234	1154.52161	1280.24866	-61.17163	1209.18079	1690.40991	153.27599	1026.21973	1021.60583	115.39706	1020.85352	1028.66724	281.31836	1174.02307	971.53851	101.87623	1231.41333	1176.37415	-18.90486	1286.33313	1199.98376	81.60412	1330.89343	1259.91272	133.26094	1137.01855	1182.59253	-106.08736	NaN	NaN	NaN	1101.74231	1719.09229	204.6721	NaN	NaN	NaN	NaN	NaN	NaN	NaN	NaN	NaN	NaN	NaN	NaN	NaN	NaN	NaN
49	0.48	1041.71936	493.79031	75.59885	1278.79749	561.55164	326.94977	1037.19788	1180.34839	463.27536	1163.98193	1188.94495	396.37109	1156.79016	1130.81726	427.1424	954.85913	1239.46558	478.75732	1004.28436	1330.8501	438.30637	1146.78003	1437.80237	348.5907	1297.76416	1255.86597	67.97741	1238.70654	1146.94348	412.15311	1238.93518	1672.6427	285.14215	1232.17139	1391.53979	212.93141	1201.81665	987.3407	311.99271	1223.14697	670.69873	366.29709	1204.09668	1440.54114	52.06181	1083.74817	654.58405	49.21954	1112.61914	1611.52026	273.04504	1128.09229	1471.41797	189.34093	804.74017	409.70435	85.58897	643.18237	354.22055	117.83691	632.17566	206.42282	138.91669	1119.8844	1618.6748	144.02148	1305.17688	300.57947	293.16339	1033.16895	1319.94336	235.64952	621.56622	390.96518	161.7187	1340.32874	126.26518	226.58994	1260.4054	1211.96606	212.60387	1306.94373	121.48785	178.23363	1491.62817	55.46346	201.02478	1062.77856	1156.89172	180.20638	1188.88257	1276.60754	-61.18068	1246.83691	1685.49219	153.81921	1066.83008	1015.71497	112.75637	1059.90039	1023.91498	278.18005	1214.54248	966.89459	100.02018	1265.66675	1170.28027	-21.50258	1323.71545	1190.9126	77.82963	1370.40344	1249.17554	129.20575	1169.60571	1179.67627	-106.38805	NaN	NaN	NaN	1139.85742	1714.17908	206.4024	NaN	NaN	NaN	NaN	NaN	NaN	NaN	NaN	NaN	NaN	NaN	NaN	NaN	NaN	NaN
50	0.49	1096.53503	484.21768	72.34955	1314.18335	556.3089	324.17294	1084.54614	1167.63574	464.46777	1209.87769	1178.77356	395.33316	1205.03479	1120.91626	427.25824	1001.21863	1225.01355	481.50238	1047.24243	1317.8927	441.60748	1185.83081	1430.04114	349.71875	1335.84973	1245.93188	65.67917	1285.62549	1138.18713	409.89685	1278.32227	1666.98706	286.00925	1270.91528	1385.53198	212.9959	1241.02551	982.85632	311.26285	1261.61328	666.91962	362.62198	1241.00439	1435.09253	52.52951	1132.11267	646.05237	47.01438	1151.53857	1605.77917	275.228	1166.72498	1465.28027	191.02554	859.70306	405.53366	82.36603	696.91669	356.02496	114.6762	684.87244	208.79189	132.45267	1157.18298	1612.72559	146.07219	1326.94556	290.64978	290.36292	1072.32703	1313.74414	236.40961	675.7467	392.6615	159.17195	1351.72937	114.53196	223.30789	1299.27173	1206.0636	211.36003	1317.92114	111.44788	175.53668	1499.57092	37.46166	196.62447	1102.26086	1151.34595	178.52461	1222.61475	1272.18054	-61.64166	1284.24646	1679.57031	154.27554	1107.32898	1009.15869	109.99329	1098.95203	1018.07788	275.00116	1254.59778	961.10529	98.70265	1299.11987	1163.02625	-24.38314	1360.28845	1180.38611	73.52304	1409.48755	1236.70447	124.54266	1201.27258	1175.88281	-106.58742	NaN	NaN	NaN	1177.88818	1708.37756	208.08191	NaN	NaN	NaN	NaN	NaN	NaN	NaN	NaN	NaN	NaN	NaN	NaN	NaN	NaN	NaN
51	0.5	1152.17078	474.33362	69.05881	1349.88391	549.04822	322.41705	1132.63782	1153.68359	465.59299	1256.35779	1167.59729	394.0582	1252.97913	1109.52332	425.51093	1048.45654	1209.54919	484.29169	1090.86926	1303.73425	444.94598	1225.27295	1421.11987	351.08328	1371.32336	1234.25366	64.11743	1333.01538	1128.40271	407.29745	1317.4187	1660.42065	286.33942	1309.73035	1378.60022	212.95145	1280.40698	977.27051	310.68097	1300.3573	661.88751	358.90857	1277.48193	1428.64185	52.85968	1180.75244	636.92249	44.80677	1190.5968	1599.08496	277.5563	1204.80017	1458.57532	192.612	916.45544	400.16776	78.93033	752.74231	355.43497	110.97802	740.45105	208.73502	125.39807	1194.2251	1605.80432	148.24196	1348.08472	280.38947	289.50461	1111.46973	1306.42871	237.49797	731.84662	391.89413	156.0863	1358.42993	104.29732	218.97203	1338.40063	1199.2583	210.09526	1321.40063	96.80187	174.44714	1510.76538	32.63536	191.20195	1141.72827	1145.01123	177.06593	1255.44128	1266.57983	-61.79443	1321.4032	1672.78882	154.36652	1147.1189	1001.77472	107.28655	1137.92554	1011.35138	272.06854	1294.75818	954.49365	97.09303	1331.72058	1154.68262	-27.67172	1395.84363	1168.67529	68.72372	1447.78784	1222.59644	119.24692	1231.98511	1171.17395	-106.77325	NaN	NaN	NaN	1215.67126	1701.39502	209.65082	NaN	NaN	NaN	NaN	NaN	NaN	NaN	NaN	NaN	NaN	NaN	NaN	NaN	NaN	NaN
52	0.51	1208.83337	464.5592	65.88597	1385.40637	539.55597	321.58868	1181.58337	1138.67883	466.52451	1303.40942	1155.60278	392.41656	1301.22083	1097.05151	423.07272	1096.72107	1193.15137	487.0545	1135.31763	1288.52002	448.42624	1265.51477	1411.22888	352.83295	1407.42737	1221.90857	60.77406	1380.87903	1117.66016	404.16971	1356.49304	1653.21729	286.54428	1348.62842	1370.94751	212.83159	1319.66187	970.56519	310.02698	1338.53467	654.68536	356.88138	1313.62244	1421.31018	52.96348	1229.48352	627.49097	42.25037	1229.48816	1591.56665	279.78473	1243.37061	1450.79199	194.65007	974.74927	393.6011	75.17495	810.63873	352.66666	106.66095	799.1076	206.50409	117.89261	1231.19409	1598.11365	150.46323	1368.19226	270.77573	286.12631	1150.86365	1297.9408	238.99847	789.64728	388.81	152.27638	1361.52295	94.16623	216.43613	1377.61279	1191.65161	208.52571	1320.69336	84.93418	175.00166	1513.21521	32.98269	188.61452	1180.45227	1137.71326	175.96906	1287.40332	1260.26953	-62.36922	1358.33948	1665.43005	154.40636	1186.61609	993.57214	104.71066	1176.49976	1004.03137	269.87411	1334.60938	947.06879	95.79149	1363.26318	1145.26758	-31.36092	1430.51855	1155.60791	63.27901	1485.23816	1207.17529	113.16502	1261.71912	1165.89099	-107.2289	NaN	NaN	NaN	1253.48511	1693.82898	211.55969	NaN	NaN	NaN	NaN	NaN	NaN	NaN	NaN	NaN	NaN	NaN	NaN	NaN	NaN	NaN
53	0.52	1266.62976	455.28995	62.96923	1421.61353	530.10638	319.05994	1231.25342	1122.9519	466.94696	1351.02429	1143.10889	390.57718	1350.50879	1084.21558	420.59201	1145.88367	1175.96948	489.71866	1180.73218	1272.35742	452.01563	1306.2334	1400.66919	355.11417	1443.02136	1208.96155	56.41341	1429.37903	1105.97791	400.42542	1395.0979	1645.69678	286.29233	1387.48499	1362.78564	212.49809	1358.64844	962.79242	309.14047	1374.26343	644.27399	357.0784	1349.23657	1413.46277	52.6414	1278.92944	618.1358	39.66918	1268.86121	1583.7063	282.19424	1281.52917	1442.53833	196.6694	1034.80334	386.47995	70.90105	870.43085	347.95828	101.78999	860.92828	202.32991	110.08595	1268.06348	1589.97302	152.80107	1387.24646	262.35333	284.90677	1189.38147	1288.47156	241.19183	848.91089	383.59644	147.82263	1358.2804	88.79198	214.00468	1415.30261	1183.10681	204.985	1316.30457	78.43362	171.66962	1511.91174	32.08749	185.96912	1219.01953	1129.51001	175.19521	1318.26453	1252.9884	-62.59599	1395.08911	1657.90637	154.27686	1225.34192	984.99249	102.58009	1213.95435	996.12872	268.40518	1373.84985	939.02625	94.77733	1394.18127	1135.27771	-35.98755	1464.00024	1141.73474	57.15113	1521.974	1190.68506	105.91926	1290.35889	1159.86243	-107.66801	1460.75757	1577.54956	160.13518	1291.02954	1685.78308	213.3802	NaN	NaN	NaN	NaN	NaN	NaN	NaN	NaN	NaN	NaN	NaN	NaN	NaN	NaN	NaN
54	0.53	1325.74414	447.108	60.18527	1457.78125	519.17578	313.77631	1281.88232	1106.67444	467.15399	1399.47424	1130.44641	388.50159	1400.49658	1070.55969	417.16129	1196.08545	1158.11133	492.3559	1227.05078	1255.41992	455.78876	1347.86121	1390.03992	357.6424	1476.75818	1195.43652	51.45695	1478.50256	1093.97656	396.04584	1434.08984	1638.33777	286.28122	1426.27527	1354.56628	211.94063	1397.22449	953.98291	308.74283	1408.6604	633.35229	353.51382	1384.74048	1405.15112	51.84192	1329.13708	609.33679	36.97509	1307.9115	1575.45605	284.16391	1319.65381	1434.2439	198.48041	1096.50366	379.33411	66.48153	932.12903	341.66095	96.50753	926.14301	196.4384	101.79945	1305.06299	1581.85596	154.93947	1408.78906	256.39349	283.04886	1227.31885	1277.95032	243.95728	909.46027	376.49689	142.95695	1360.30591	85.24744	213.72845	1454.24133	1174.65186	203.87616	1316.48743	75.81528	175.12779	1512.10901	31.86493	184.96078	1256.98499	1120.37378	175.3756	1348.37512	1245.47424	-63.75049	1431.75952	1650.64307	154.07265	1263.13257	976.38641	100.81144	1250.95728	988.2793	268.24075	1412.58655	930.84448	94.04524	1423.23975	1124.72888	-40.40561	1496.22095	1127.52161	50.15977	1557.03455	1173.79565	98.27169	1317.75073	1153.45227	-108.25085	NaN	NaN	NaN	1328.48047	1677.70605	215.22591	NaN	NaN	NaN	NaN	NaN	NaN	NaN	NaN	NaN	NaN	NaN	NaN	NaN	NaN	NaN
